<svg width="512" height="512" viewBox="0 0 512 512" fill="none" xmlns="http://www.w3.org/2000/svg">
<g clip-path="url(#clip0)">
<path d="M47.117 158.533H464.883C490.863 158.533 512 137.396 512 111.416C512 85.403 490.863 64.267 464.883 64.267H47.117C21.137 64.267 0 85.403 0 111.416C0 137.396 21.137 158.533 47.117 158.533ZM47.117 94.267H464.883C474.321 94.267 482 101.946 482 111.384C482 120.855 474.321 128.533 464.883 128.533H47.117C37.679 128.533 30 120.854 30 111.384C30 101.945 37.679 94.267 47.117 94.267Z" fill="white"/>
<path d="M464.883 208.867H47.117C21.137 208.867 0 230.003 0 256.016C0 281.996 21.137 303.133 47.117 303.133H464.883C490.863 303.133 512 281.996 512 256.016C512 230.003 490.863 208.867 464.883 208.867V208.867ZM464.883 273.133H47.117C37.679 273.133 30 265.454 30 255.984C30 246.546 37.679 238.867 47.117 238.867H464.883C474.321 238.867 482 246.546 482 255.984C482 265.455 474.321 273.133 464.883 273.133Z" fill="white"/>
<path d="M464.883 353.467H47.117C21.137 353.467 0 374.604 0 400.616C0 426.596 21.137 447.733 47.117 447.733H464.883C490.863 447.733 512 426.596 512 400.616C512 374.604 490.863 353.467 464.883 353.467ZM464.883 417.733H47.117C37.679 417.733 30 410.054 30 400.584C30 391.146 37.679 383.467 47.117 383.467H464.883C474.321 383.467 482 391.146 482 400.584C482 410.055 474.321 417.733 464.883 417.733Z" fill="white"/>
</g>
<defs>
<clipPath id="clip0">
<rect width="512" height="512" fill="white"/>
</clipPath>
</defs>
</svg>
